<?xml version="1.0" encoding="UTF-8" standalone="no"?><svg xmlns="http://www.w3.org/2000/svg" xmlns:xlink="http://www.w3.org/1999/xlink" width="20px" height="20px" viewBox="0 0 20 20" version="1.1"><title>file_cpp [#1747]</title><g id="Page-1" stroke="none" stroke-width="1" fill="none" fill-rule="evenodd"><g id="Dribbble-Light-Preview" transform="translate(-220.000000, -1319.000000)" fill="#000"><g id="icons" transform="translate(56.000000, 160.000000)"><path d="M183.725 1165.117l-5.45-5.755c-.19-.197-.451-.361-.725-.361H166c-1.104 0-2 .995-2 2.093v6.964c0 .55.448.995 1 .995.553 0 1-.445 1-.995v-5.97c0-.548.448-1.097 1-1.097h9v4.082c0 1.1.896 1.887 2 1.887h4v1.098c0 .55.448.995 1 .995.553 0 1-.445 1-.995v-2.255c0-.255-.098-.5-.275-.686m-1.725 8.91a.997.997 0 0 0-1-.995h-1v1.99h1c.553 0 1-.445 1-.995m2-.104a2.992 2.992 0 0 1-3 2.985h-1v1.098c0 .55-.447.995-1 .995-.552 0-1-.445-1-.995v-5.969c0-.549.448-1.098 1-1.098h2c1.657 0 3 1.336 3 2.984m-9 .104a.997.997 0 0 0-1-.995h-1v1.99h1c.553 0 1-.445 1-.995m2-.104a2.992 2.992 0 0 1-3 2.985h-1v1.098c0 .55-.447.995-1 .995-.552 0-1-.445-1-.995v-5.969c0-.549.448-1.098 1-1.098h2c1.657 0 3 1.336 3 2.984m-11 .995c0 1.098.896 1.99 2 1.99h1c.553 0 1 .444 1 .995 0 .549-.447.994-1 .994h-1c-2.21 0-4-1.781-4-3.979 0-2.197 1.79-3.98 4-3.98h1c.553 0 1 .446 1 .996 0 .549-.447.994-1 .994h-1c-1.104 0-2 .89-2 1.99" id="file_cpp-[#1747]"/></g></g></g><metadata><rdf:RDF xmlns:rdf="http://www.w3.org/1999/02/22-rdf-syntax-ns#" xmlns:rdfs="http://www.w3.org/2000/01/rdf-schema#" xmlns:dc="http://purl.org/dc/elements/1.1/"><rdf:Description about="https://iconscout.com/legal#licenses" dc:title="file,cpp" dc:description="file,cpp" dc:publisher="Iconscout" dc:date="2017-09-15" dc:format="image/svg+xml" dc:language="en"><dc:creator><rdf:Bag><rdf:li>Alexandru Stoica</rdf:li></rdf:Bag></dc:creator></rdf:Description></rdf:RDF></metadata></svg>